<svg width="60" height="40" viewBox="0 0 60 40" fill="none" xmlns="http://www.w3.org/2000/svg">
<path d="M19.401 20.2604C19.401 20.9028 19.1797 21.4366 18.737 21.862C18.2943 22.2873 17.7517 22.5 17.1094 22.5C16.6059 22.5 16.2023 22.3611 15.8984 22.0833C15.5946 21.8056 15.4427 21.4236 15.4427 20.9375C15.4427 20.2951 15.6597 19.7526 16.0938 19.3099C16.5278 18.8672 17.066 18.6458 17.7083 18.6458C18.1944 18.6458 18.5981 18.7891 18.9193 19.0755C19.2405 19.362 19.401 19.7569 19.401 20.2604ZM39.8438 16.3802C39.8438 17.1094 39.6528 17.6042 39.2708 17.8646C38.8889 18.125 38.316 18.2552 37.5521 18.2552L36.7188 18.2812L37.1615 15.4948C37.1962 15.3038 37.309 15.2083 37.5 15.2083H37.9688C38.3507 15.2083 38.6545 15.2257 38.8802 15.2604C39.1059 15.2951 39.3229 15.4036 39.5312 15.5859C39.7396 15.7682 39.8438 16.033 39.8438 16.3802ZM48.9844 20.2604C48.9844 20.8854 48.763 21.4149 48.3203 21.849C47.8776 22.283 47.3438 22.5 46.7188 22.5C46.2153 22.5 45.8073 22.3611 45.4948 22.0833C45.1823 21.8056 45.026 21.4236 45.026 20.9375C45.026 20.2951 45.2431 19.7526 45.6771 19.3099C46.1111 18.8672 46.6493 18.6458 47.2917 18.6458C47.7778 18.6458 48.1814 18.7891 48.5026 19.0755C48.8238 19.362 48.9844 19.7569 48.9844 20.2604ZM13.3594 15.8073C13.3594 14.783 13.0252 14.0408 12.3568 13.5807C11.6884 13.1207 10.816 12.8906 9.73958 12.8906H5.57292C5.24306 12.8906 5.06076 13.0556 5.02604 13.3854L3.33333 24.0104C3.31597 24.1146 3.34201 24.2101 3.41146 24.2969C3.4809 24.3837 3.56771 24.4271 3.67188 24.4271H5.65104C5.99826 24.4271 6.18924 24.2622 6.22396 23.9323L6.69271 21.0677C6.71007 20.9288 6.77083 20.816 6.875 20.7292C6.97917 20.6424 7.10938 20.5859 7.26562 20.5599C7.42188 20.5339 7.56944 20.5208 7.70833 20.5208C7.84722 20.5208 8.01215 20.5295 8.20312 20.5469C8.3941 20.5642 8.51562 20.5729 8.56771 20.5729C10.0608 20.5729 11.2326 20.1519 12.0833 19.3099C12.934 18.4679 13.3594 17.3003 13.3594 15.8073ZM21.4062 23.9323L22.474 17.1354C22.4913 17.0312 22.4653 16.9358 22.3958 16.849C22.3264 16.7622 22.2396 16.7188 22.1354 16.7188H20.1562C19.9132 16.7188 19.7656 17.0052 19.7135 17.5781C19.2448 16.8837 18.4201 16.5365 17.2396 16.5365C15.9896 16.5365 14.9262 17.0052 14.0495 17.9427C13.1727 18.8802 12.7344 19.9826 12.7344 21.25C12.7344 22.2743 13.0339 23.0903 13.6328 23.6979C14.2318 24.3056 15.0347 24.6094 16.0417 24.6094C16.5278 24.6094 17.0312 24.5052 17.5521 24.2969C18.0729 24.0885 18.4896 23.8108 18.8021 23.4635C18.7326 23.6719 18.6979 23.8542 18.6979 24.0104C18.6979 24.2882 18.8108 24.4271 19.0365 24.4271H20.8333C21.1632 24.4271 21.3542 24.2622 21.4062 23.9323ZM33.0469 17.0833C33.0469 16.9965 33.0122 16.9141 32.9427 16.8359C32.8733 16.7578 32.7951 16.7188 32.7083 16.7188H30.7031C30.5122 16.7188 30.3559 16.8056 30.2344 16.9792L27.474 21.0417L26.3281 17.1354C26.2413 16.8576 26.0503 16.7188 25.7552 16.7188H23.8021C23.7153 16.7188 23.6372 16.7578 23.5677 16.8359C23.4983 16.9141 23.4635 16.9965 23.4635 17.0833C23.4635 17.1181 23.6328 17.6302 23.9714 18.6198C24.3099 19.6094 24.6745 20.6771 25.0651 21.8229C25.4557 22.9688 25.6597 23.5764 25.6771 23.6458C24.2535 25.5903 23.5417 26.6319 23.5417 26.7708C23.5417 26.9965 23.6545 27.1094 23.8802 27.1094H25.8854C26.0764 27.1094 26.2326 27.0226 26.3542 26.849L32.9948 17.2656C33.0295 17.2309 33.0469 17.1701 33.0469 17.0833ZM42.9427 15.8073C42.9427 14.783 42.6085 14.0408 41.9401 13.5807C41.2717 13.1207 40.3993 12.8906 39.3229 12.8906H35.1823C34.8351 12.8906 34.6441 13.0556 34.6094 13.3854L32.9167 24.0104C32.8993 24.1146 32.9253 24.2101 32.9948 24.2969C33.0642 24.3837 33.151 24.4271 33.2552 24.4271H35.3906C35.599 24.4271 35.7378 24.3142 35.8073 24.0885L36.276 21.0677C36.2934 20.9288 36.3542 20.816 36.4583 20.7292C36.5625 20.6424 36.6927 20.5859 36.849 20.5599C37.0052 20.5339 37.1528 20.5208 37.2917 20.5208C37.4306 20.5208 37.5955 20.5295 37.7865 20.5469C37.9774 20.5642 38.099 20.5729 38.151 20.5729C39.6441 20.5729 40.816 20.1519 41.6667 19.3099C42.5174 18.4679 42.9427 17.3003 42.9427 15.8073ZM50.9896 23.9323L52.0573 17.1354C52.0746 17.0312 52.0486 16.9358 51.9792 16.849C51.9097 16.7622 51.8229 16.7188 51.7188 16.7188H49.7396C49.4965 16.7188 49.349 17.0052 49.2969 17.5781C48.8455 16.8837 48.0208 16.5365 46.8229 16.5365C45.5729 16.5365 44.5095 17.0052 43.6328 17.9427C42.7561 18.8802 42.3177 19.9826 42.3177 21.25C42.3177 22.2743 42.6172 23.0903 43.2161 23.6979C43.8151 24.3056 44.6181 24.6094 45.625 24.6094C46.1285 24.6094 46.6406 24.5052 47.1615 24.2969C47.6823 24.0885 48.0903 23.8108 48.3854 23.4635C48.3854 23.4809 48.3681 23.559 48.3333 23.6979C48.2986 23.8368 48.2812 23.941 48.2812 24.0104C48.2812 24.2882 48.3941 24.4271 48.6198 24.4271H50.4167C50.7465 24.4271 50.9375 24.2622 50.9896 23.9323ZM56.6667 13.2812V13.2552C56.6667 13.0122 56.5538 12.8906 56.3281 12.8906H54.401C54.2101 12.8906 54.0972 12.9861 54.0625 13.1771L52.3698 24.0104L52.3438 24.0625C52.3438 24.1493 52.3785 24.2318 52.4479 24.3099C52.5174 24.388 52.6042 24.4271 52.7083 24.4271H54.4271C54.7569 24.4271 54.9392 24.2622 54.974 23.9323L56.6667 13.2812ZM10.2083 16.7708C10.1215 17.3785 9.89583 17.7778 9.53125 17.9688C9.16667 18.1597 8.64583 18.2552 7.96875 18.2552L7.10938 18.2812L7.55208 15.4948C7.58681 15.3038 7.69965 15.2083 7.89062 15.2083H8.38542C9.07986 15.2083 9.58333 15.3082 9.89583 15.5078C10.2083 15.7075 10.3125 16.1285 10.2083 16.7708ZM60 3.33333V36.6667C60 37.5694 59.6701 38.3507 59.0104 39.0104C58.3507 39.6701 57.5694 40 56.6667 40H3.33333C2.43056 40 1.64931 39.6701 0.989583 39.0104C0.329861 38.3507 0 37.5694 0 36.6667V3.33333C0 2.43056 0.329861 1.64931 0.989583 0.989583C1.64931 0.329861 2.43056 0 3.33333 0H56.6667C57.5694 0 58.3507 0.329861 59.0104 0.989583C59.6701 1.64931 60 2.43056 60 3.33333Z" fill="black"/>
</svg>
