<svg width="60" height="40" viewBox="0 0 60 40" fill="none" xmlns="http://www.w3.org/2000/svg">
<path d="M29.1406 5.54688C26.9184 4.07118 24.4792 3.33333 21.8229 3.33333C20.0347 3.33333 18.3203 3.6849 16.6797 4.38802C15.0391 5.09115 13.6285 6.03299 12.4479 7.21354C11.2674 8.3941 10.3255 9.80035 9.6224 11.4323C8.91927 13.0642 8.56771 14.7743 8.56771 16.5625C8.56771 18.3681 8.91927 20.0868 9.6224 21.7188C10.3255 23.3507 11.2674 24.7569 12.4479 25.9375C13.6285 27.1181 15.0347 28.0599 16.6667 28.763C18.2986 29.4661 20.0174 29.8177 21.8229 29.8177C24.4792 29.8177 26.9184 29.0799 29.1406 27.6042C26.8663 25.7465 25.3212 23.4418 24.5052 20.6901C23.6892 17.9384 23.6936 15.191 24.5182 12.4479C25.3429 9.70486 26.8837 7.40451 29.1406 5.54688ZM30 6.17188C27.8125 7.89062 26.3194 10.0564 25.5208 12.6693C24.7222 15.2821 24.7179 17.8906 25.5078 20.4948C26.2977 23.099 27.7951 25.2604 30 26.9792C32.2049 25.2604 33.7023 23.099 34.4922 20.4948C35.2821 17.8906 35.2778 15.2821 34.4792 12.6693C33.6806 10.0564 32.1875 7.89062 30 6.17188ZM30.8594 5.54688C33.1163 7.40451 34.6571 9.7092 35.4818 12.4609C36.3064 15.2127 36.3108 17.9644 35.4948 20.7161C34.6788 23.4679 33.1337 25.7639 30.8594 27.6042C33.0816 29.0799 35.5208 29.8177 38.1771 29.8177C39.9826 29.8177 41.7014 29.4661 43.3333 28.763C44.9653 28.0599 46.3715 27.1181 47.5521 25.9375C48.7326 24.7569 49.6745 23.3507 50.3776 21.7188C51.0807 20.0868 51.4323 18.3681 51.4323 16.5625C51.4323 14.7743 51.0807 13.0642 50.3776 11.4323C49.6745 9.80035 48.7326 8.3941 47.5521 7.21354C46.3715 6.03299 44.9609 5.09115 43.3203 4.38802C41.6797 3.6849 39.9653 3.33333 38.1771 3.33333C35.5208 3.33333 33.0816 4.07118 30.8594 5.54688ZM50.1562 24.349H50.3385V24.2708H49.8958V24.349H50.0781V24.7917H50.1562V24.349ZM50.9115 24.7917H51.0156V24.2708H50.8854L50.7292 24.6094L50.5729 24.2708H50.4427V24.7917H50.5208V24.401L50.6771 24.7396H50.7812L50.9115 24.401V24.7917ZM50.7031 36.25V36.3021H50.5729V36.224H50.7031V36.25ZM50.7031 36.4844H50.7812L50.6771 36.3542H50.7292L50.7552 36.3281C50.7726 36.3108 50.7812 36.2847 50.7812 36.25C50.7812 36.2153 50.7726 36.1892 50.7552 36.1719L50.7292 36.1458H50.4948V36.4844H50.5729V36.3542H50.599L50.7031 36.4844ZM17.8385 34.7135C17.8385 34.3837 17.934 34.1146 18.125 33.9062C18.316 33.6979 18.5764 33.5938 18.9062 33.5938C19.2188 33.5938 19.4705 33.7023 19.6615 33.9193C19.8524 34.1363 19.9479 34.401 19.9479 34.7135C19.9479 35.0434 19.8524 35.3125 19.6615 35.5208C19.4705 35.7292 19.2188 35.8333 18.9062 35.8333C18.5764 35.8333 18.316 35.7292 18.125 35.5208C17.934 35.3125 17.8385 35.0434 17.8385 34.7135ZM30.1562 33.5677C30.6771 33.5677 30.9809 33.8455 31.0677 34.401H29.2448C29.3316 33.8455 29.6354 33.5677 30.1562 33.5677ZM39.4271 34.7135C39.4271 34.3837 39.5226 34.1146 39.7135 33.9062C39.9045 33.6979 40.1562 33.5938 40.4688 33.5938C40.7812 33.5938 41.0373 33.7023 41.237 33.9193C41.4366 34.1363 41.5365 34.401 41.5365 34.7135C41.5365 35.0434 41.441 35.3125 41.25 35.5208C41.059 35.7292 40.7986 35.8333 40.4688 35.8333C40.1562 35.8333 39.9045 35.7292 39.7135 35.5208C39.5226 35.3125 39.4271 35.0434 39.4271 34.7135ZM46.5104 34.7135C46.5104 34.401 46.6102 34.1363 46.8099 33.9193C47.0095 33.7023 47.2656 33.5938 47.5781 33.5938C47.8906 33.5938 48.1467 33.7023 48.3464 33.9193C48.546 34.1363 48.6458 34.401 48.6458 34.7135C48.6458 35.0434 48.546 35.3125 48.3464 35.5208C48.1467 35.7292 47.8906 35.8333 47.5781 35.8333C47.2656 35.8333 47.0095 35.7248 46.8099 35.5078C46.6102 35.2908 46.5104 35.026 46.5104 34.7135ZM50.625 36.5885C50.5903 36.5885 50.5556 36.5799 50.5208 36.5625C50.5035 36.5625 50.4774 36.5451 50.4427 36.5104C50.408 36.4757 50.3906 36.4497 50.3906 36.4323C50.3733 36.3976 50.3646 36.3628 50.3646 36.3281C50.3646 36.276 50.3733 36.2413 50.3906 36.224C50.3906 36.1892 50.408 36.1545 50.4427 36.1198L50.4688 36.0938C50.5035 36.0938 50.5208 36.0851 50.5208 36.0677C50.5556 36.0503 50.5903 36.0417 50.625 36.0417C50.6771 36.0417 50.7118 36.0503 50.7292 36.0677L50.8333 36.1198L50.8854 36.224V36.25C50.9028 36.2847 50.9115 36.3108 50.9115 36.3281L50.8854 36.3542V36.4323L50.8594 36.4583L50.8333 36.5104C50.7986 36.5451 50.7639 36.5625 50.7292 36.5625C50.7118 36.5799 50.6771 36.5885 50.625 36.5885ZM15.599 36.4844H16.3802V34.2708C16.3802 33.8542 16.2543 33.52 16.0026 33.2682C15.7509 33.0165 15.408 32.8819 14.974 32.8646C14.4184 32.8646 14.0104 33.0729 13.75 33.4896C13.5069 33.0729 13.1163 32.8646 12.5781 32.8646C12.1615 32.8646 11.8229 33.0382 11.5625 33.3854V32.9688H10.7812V36.4844H11.5625V34.5312C11.5625 33.9062 11.849 33.5938 12.4219 33.5938C12.9427 33.5938 13.2031 33.9062 13.2031 34.5312V36.4844H13.9583V34.5312C13.9583 33.9062 14.2448 33.5938 14.8177 33.5938C15.3385 33.5938 15.599 33.9062 15.599 34.5312V36.4844ZM19.9219 36.4844H20.6771V32.9688H19.9219V33.3854C19.6267 33.0382 19.2535 32.8646 18.8021 32.8646C18.2986 32.8646 17.8819 33.0382 17.5521 33.3854C17.2222 33.7326 17.0573 34.1753 17.0573 34.7135C17.0573 35.2517 17.2222 35.6944 17.5521 36.0417C17.8819 36.3889 18.2986 36.5625 18.8021 36.5625C19.2882 36.5625 19.6615 36.3889 19.9219 36.0417V36.4844ZM24.5573 35.4167C24.5573 34.8264 24.1493 34.4792 23.3333 34.375L22.9688 34.3229C22.5694 34.2535 22.3698 34.1319 22.3698 33.9583C22.3698 33.6979 22.5868 33.5677 23.0208 33.5677C23.4201 33.5677 23.7934 33.6632 24.1406 33.8542L24.4531 33.2292C24.0712 32.9861 23.5938 32.8646 23.0208 32.8646C22.5694 32.8646 22.2135 32.9688 21.9531 33.1771C21.6927 33.3854 21.5625 33.6632 21.5625 34.0104C21.5625 34.5833 21.9705 34.9219 22.7865 35.026L23.125 35.0781C23.5417 35.1476 23.75 35.2691 23.75 35.4427C23.75 35.7378 23.4809 35.8854 22.9427 35.8854C22.5087 35.8854 22.1181 35.7639 21.7708 35.5208L21.4323 36.1198C21.8663 36.4149 22.3698 36.5625 22.9427 36.5625C23.4462 36.5625 23.8411 36.4583 24.1276 36.25C24.4141 36.0417 24.5573 35.7639 24.5573 35.4167ZM27.9427 36.3021L27.7344 35.651C27.5087 35.7726 27.283 35.8333 27.0573 35.8333C26.7274 35.8333 26.5625 35.6424 26.5625 35.2604V33.6719H27.8125V32.9688H26.5625V31.901H25.7812V32.9688H25.0521V33.6719H25.7812V35.2604C25.7812 36.1285 26.1892 36.5625 27.0052 36.5625C27.3698 36.5625 27.6823 36.4757 27.9427 36.3021ZM30.1823 32.8646C29.6788 32.8646 29.2622 33.0382 28.9323 33.3854C28.6024 33.7326 28.4375 34.1753 28.4375 34.7135C28.4375 35.2691 28.6068 35.7161 28.9453 36.0547C29.2839 36.3932 29.7135 36.5625 30.2344 36.5625C30.8073 36.5625 31.2847 36.3976 31.6667 36.0677L31.3021 35.4948C30.9896 35.7552 30.651 35.8854 30.2865 35.8854C29.6962 35.8854 29.3403 35.599 29.2188 35.026H31.849V34.7135C31.849 34.158 31.6927 33.7109 31.3802 33.3724C31.0677 33.0339 30.6684 32.8646 30.1823 32.8646ZM34.3229 32.8646C33.9236 32.8646 33.6198 33.0382 33.4115 33.3854V32.9688H32.6302V36.4844H33.4115V34.5052C33.4115 33.8976 33.6632 33.5938 34.1667 33.5938C34.3403 33.5938 34.4965 33.6285 34.6354 33.6979L34.8698 32.9688C34.7135 32.8993 34.5312 32.8646 34.3229 32.8646ZM35.1042 34.7135C35.1042 35.2517 35.2734 35.6944 35.612 36.0417C35.9505 36.3889 36.4062 36.5625 36.9792 36.5625C37.4826 36.5625 37.8993 36.4236 38.2292 36.1458L37.8646 35.5208C37.5521 35.7465 37.2483 35.8507 36.9531 35.8333C36.6406 35.8333 36.3845 35.7292 36.1849 35.5208C35.9852 35.3125 35.8854 35.0434 35.8854 34.7135C35.8854 34.3837 35.9852 34.1146 36.1849 33.9062C36.3845 33.6979 36.6406 33.5938 36.9531 33.5938C37.283 33.5938 37.5868 33.6979 37.8646 33.9062L38.2292 33.2812C37.8819 33.0035 37.4653 32.8646 36.9792 32.8646C36.4062 32.8646 35.9505 33.0382 35.612 33.3854C35.2734 33.7326 35.1042 34.1753 35.1042 34.7135ZM41.4844 36.4844H42.2656V32.9688H41.4844V33.3854C41.224 33.0382 40.8594 32.8646 40.3906 32.8646C39.8872 32.8646 39.4661 33.0382 39.1276 33.3854C38.7891 33.7326 38.6198 34.1753 38.6198 34.7135C38.6198 35.2517 38.7891 35.6944 39.1276 36.0417C39.4661 36.3889 39.8872 36.5625 40.3906 36.5625C40.8767 36.5625 41.2413 36.3889 41.4844 36.0417V36.4844ZM44.9479 32.8646C44.5486 32.8646 44.2448 33.0382 44.0365 33.3854V32.9688H43.2812V36.4844H44.0365V34.5052C44.0365 33.8976 44.2882 33.5938 44.7917 33.5938C44.9653 33.5938 45.1215 33.6285 45.2604 33.6979L45.4948 32.9688C45.3559 32.8993 45.1736 32.8646 44.9479 32.8646ZM48.5938 36.4844H49.349V31.5365H48.5938V33.3854C48.3333 33.0382 47.9601 32.8646 47.474 32.8646C46.9878 32.8646 46.5755 33.0425 46.237 33.3984C45.8984 33.7543 45.7292 34.1927 45.7292 34.7135C45.7292 35.2344 45.8984 35.6727 46.237 36.0286C46.5755 36.3845 46.9878 36.5625 47.474 36.5625C47.9774 36.5625 48.3507 36.3889 48.5938 36.0417V36.4844ZM50.625 35.9635L50.5729 35.9896H50.4948C50.4601 36.0069 50.4253 36.033 50.3906 36.0677C50.3385 36.0851 50.3125 36.1198 50.3125 36.1719C50.2951 36.2066 50.2865 36.2587 50.2865 36.3281C50.2865 36.3802 50.2951 36.4236 50.3125 36.4583C50.3125 36.4931 50.3385 36.5278 50.3906 36.5625C50.4253 36.5972 50.4601 36.6233 50.4948 36.6406C50.5295 36.658 50.5729 36.6667 50.625 36.6667C50.6944 36.6667 50.7465 36.658 50.7812 36.6406C50.7812 36.6233 50.7986 36.6059 50.8333 36.5885L50.8854 36.5625C50.9028 36.5451 50.9288 36.5104 50.9635 36.4583C50.9809 36.4236 50.9896 36.3802 50.9896 36.3281C50.9896 36.2587 50.9809 36.2066 50.9635 36.1719C50.9462 36.1545 50.9201 36.1198 50.8854 36.0677C50.8854 36.0503 50.8681 36.033 50.8333 36.0156L50.7812 35.9896C50.7639 35.9896 50.7378 35.9852 50.7031 35.9766C50.6684 35.9679 50.6424 35.9635 50.625 35.9635ZM60 3.33333V36.6667C60 37.5694 59.6701 38.3507 59.0104 39.0104C58.3507 39.6701 57.5694 40 56.6667 40H3.33333C2.43056 40 1.64931 39.6701 0.989583 39.0104C0.329861 38.3507 0 37.5694 0 36.6667V3.33333C0 2.43056 0.329861 1.64931 0.989583 0.989583C1.64931 0.329861 2.43056 0 3.33333 0H56.6667C57.5694 0 58.3507 0.329861 59.0104 0.989583C59.6701 1.64931 60 2.43056 60 3.33333Z" fill="black"/>
</svg>
