<svg width="32" height="32" viewBox="0 0 32 32" fill="none" xmlns="http://www.w3.org/2000/svg">
<path d="M16 26.6667L15.7567 27.1035C15.908 27.1877 16.092 27.1877 16.2433 27.1035L16 26.6667ZM16 9.54962L15.5398 9.74518C15.6183 9.92977 15.7994 10.0496 16 10.0496C16.2006 10.0496 16.3817 9.92977 16.4602 9.74518L16 9.54962ZM3.5 11.9631C3.5 16.2061 6.65516 20.0115 9.66735 22.6957C11.1894 24.052 12.7091 25.1521 13.8472 25.9128C14.4167 26.2934 14.8919 26.5899 15.2257 26.7917C15.3926 26.8926 15.5242 26.9699 15.6146 27.0223C15.6599 27.0485 15.6948 27.0685 15.7187 27.0821C15.7307 27.0889 15.7399 27.0941 15.7463 27.0976C15.7494 27.0994 15.7519 27.1008 15.7537 27.1018C15.7545 27.1023 15.7552 27.1027 15.7557 27.1029C15.756 27.1031 15.7562 27.1032 15.7564 27.1033C15.7566 27.1034 15.7567 27.1035 16 26.6667C16.2433 26.2299 16.2434 26.2299 16.2434 26.2299C16.2433 26.2299 16.2433 26.2299 16.2432 26.2298C16.243 26.2297 16.2426 26.2294 16.242 26.2291C16.2408 26.2285 16.2389 26.2274 16.2364 26.226C16.2312 26.2231 16.2232 26.2185 16.2124 26.2124C16.1909 26.2002 16.1585 26.1817 16.1158 26.157C16.0305 26.1076 15.9043 26.0335 15.7431 25.936C15.4206 25.741 14.9583 25.4526 14.4028 25.0814C13.2909 24.3383 11.8106 23.2662 10.3326 21.9492C7.34485 19.2867 4.5 15.7403 4.5 11.9631H3.5ZM16.4602 9.35406C15.0362 6.00335 11.8151 4.48384 8.92851 4.90083C7.48298 5.10966 6.11856 5.80505 5.11698 6.9987C4.11402 8.19398 3.5 9.85838 3.5 11.9631H4.5C4.5 10.0578 5.05264 8.6311 5.88302 7.64149C6.71477 6.65025 7.85035 6.06697 9.07149 5.89056C11.5183 5.53709 14.2971 6.8209 15.5398 9.74518L16.4602 9.35406ZM27.5 11.9631C27.5 15.7403 24.6552 19.2867 21.6674 21.9492C20.1894 23.2662 18.7091 24.3383 17.5972 25.0814C17.0417 25.4526 16.5794 25.741 16.2569 25.936C16.0957 26.0335 15.9695 26.1076 15.8842 26.157C15.8415 26.1817 15.8091 26.2002 15.7876 26.2124C15.7768 26.2185 15.7688 26.2231 15.7636 26.226C15.7611 26.2274 15.7592 26.2285 15.758 26.2291C15.7574 26.2294 15.757 26.2297 15.7568 26.2298C15.7567 26.2299 15.7567 26.2299 15.7566 26.2299C15.7567 26.2299 15.7567 26.2299 16 26.6667C16.2433 27.1035 16.2434 27.1034 16.2436 27.1033C16.2438 27.1032 16.244 27.1031 16.2443 27.1029C16.2448 27.1027 16.2455 27.1023 16.2463 27.1018C16.2481 27.1008 16.2506 27.0994 16.2537 27.0976C16.2601 27.0941 16.2693 27.0889 16.2813 27.0821C16.3052 27.0685 16.3401 27.0485 16.3854 27.0223C16.4758 26.9699 16.6074 26.8926 16.7743 26.7917C17.1081 26.5899 17.5833 26.2934 18.1528 25.9128C19.2909 25.1521 20.8106 24.052 22.3326 22.6957C25.3448 20.0115 28.5 16.2061 28.5 11.9631H27.5ZM16.4602 9.74518C17.7029 6.8209 20.4817 5.53709 22.9285 5.89056C24.1497 6.06697 25.2852 6.65025 26.117 7.64149C26.9474 8.6311 27.5 10.0578 27.5 11.9631H28.5C28.5 9.85838 27.886 8.19398 26.883 6.9987C25.8814 5.80505 24.517 5.10966 23.0715 4.90083C20.1849 4.48384 16.9638 6.00335 15.5398 9.35406L16.4602 9.74518Z" fill="black"/>
</svg>
