<svg width="60" height="40" viewBox="0 0 60 40" fill="none" xmlns="http://www.w3.org/2000/svg">
<path d="M56 40H4C2.93913 40 1.92172 39.5786 1.17157 38.8284C0.421427 38.0783 0 37.0609 0 36L0 4C0 2.93913 0.421427 1.92172 1.17157 1.17157C1.92172 0.421427 2.93913 0 4 0L56 0C57.0609 0 58.0783 0.421427 58.8284 1.17157C59.5786 1.92172 60 2.93913 60 4V36C60 37.0609 59.5786 38.0783 58.8284 38.8284C58.0783 39.5786 57.0609 40 56 40ZM29.7333 24.6033L29.135 28.3533C30.6642 28.9969 32.3154 29.2989 33.9733 29.2383H33.955C35.8979 29.3517 37.8219 28.8036 39.4133 27.6833L39.385 27.7017C40.0348 27.2241 40.5631 26.6004 40.9273 25.8809C41.2916 25.1615 41.4815 24.3664 41.4817 23.56V23.535V23.5367C41.4817 21.7033 40.255 20.18 37.8367 19.0033C37.1768 18.6849 36.5456 18.3102 35.95 17.8833L35.9883 17.91C35.822 17.8023 35.6835 17.6567 35.5841 17.4852C35.4848 17.3138 35.4274 17.1212 35.4167 16.9233V16.92C35.4291 16.7136 35.4936 16.5137 35.604 16.3388C35.7144 16.164 35.8673 16.0199 36.0483 15.92L36.055 15.9167C36.6145 15.5939 37.2573 15.4448 37.9017 15.4883H37.8917H38.025L38.1533 15.4867C39.2267 15.4867 40.245 15.7183 41.1633 16.1333L41.1167 16.115L41.5067 16.3233L42.105 12.705C40.895 12.2358 39.6078 11.9972 38.31 12.0017H38.2283H38.2333C36.3554 11.9194 34.5038 12.4661 32.9717 13.555L32.9983 13.5367C32.3615 13.9861 31.8419 14.5819 31.4832 15.2739C31.1244 15.9659 30.937 16.7339 30.9367 17.5133V17.5217C30.92 19.285 32.19 20.8083 34.7133 22.055C35.38 22.3467 35.955 22.7033 36.47 23.1317L36.4583 23.1217C36.607 23.2467 36.7278 23.4014 36.8131 23.5759C36.8983 23.7505 36.9461 23.9409 36.9533 24.135V24.1417C36.9533 24.6733 36.6367 25.13 36.18 25.335L36.1717 25.3383C35.6717 25.6017 35.0783 25.755 34.4483 25.755H34.3717H34.375H34.25C32.8217 25.755 31.4683 25.4383 30.255 24.8717L30.3133 24.8967L29.7417 24.61L29.7333 24.6033ZM46.6083 26.505H52.1333C52.2222 26.8861 52.3961 27.7194 52.655 29.005H56.6667L53.1767 12.2867H49.8433C49.3668 12.2444 48.8894 12.357 48.4819 12.6078C48.0745 12.8585 47.7588 13.2339 47.5817 13.6783L47.5767 13.6933L41.1767 29.005H45.71L46.62 26.5067L46.6083 26.505ZM24.8183 12.2867L22.1083 29.005H26.4317L29.14 12.2867H24.8183ZM8.20333 15.6983L11.72 28.9783H16.2767L23.0683 12.2867H18.4917L14.2683 23.6933L13.825 21.375L12.3183 13.6933C12.2376 13.2503 11.9878 12.8559 11.6218 12.5935C11.2559 12.331 10.8022 12.221 10.3567 12.2867L10.3667 12.285H3.38833L3.33667 12.6233C8.71 13.9883 12.24 16.9333 13.83 21.3733C13.3414 20.1046 12.588 18.9546 11.62 18L11.6183 17.9983C10.6674 17.0219 9.52983 16.2465 8.27333 15.7183L8.20667 15.6933L8.20333 15.6983ZM51.4317 23.0667H47.8317C48.075 22.4244 48.6483 20.8689 49.5517 18.4L49.6283 18.165L49.895 17.4883C50.005 17.2117 50.0783 16.985 50.1283 16.8117L50.4417 18.2433L51.43 23.06L51.4317 23.0667Z" fill="black"/>
</svg>
