<?xml version="1.0" encoding="UTF-8"?><svg xmlns="http://www.w3.org/2000/svg" width="46.97mm" height="13.39mm" viewBox="0 0 133.14 37.95"><defs><style>.d{fill:#1d1d1b;}</style></defs><g id="a"/><g id="b"><g id="c"><g><path class="d" d="M5.18,7.19c-.03-2.97-.06-5.94,1.66-6.89,1.32-.73,3.3-.05,4.43,1.01,1.42,1.32,1.44,3.18,1.45,3.78,.02,1.58-.6,1.84-1.09,4.24-.4,1.96-.7,3.43,.14,4.51,.69,.89,2.04,1.39,3.15,1.09,2-.54,2.7-3.57,3.01-4.92,.76-3.31-.34-4.55,.82-5.88,1.32-1.51,3.92-1.3,4.79-1.23,.97,.08,2,.16,2.78,.97,.87,.9,1.22,2.51,.63,3.62-.96,1.82-3.65,.75-5.05,2.67-1.08,1.47,.1,2.67-1.09,4.65-1.09,1.82-2.75,1.91-2.69,2.79,.09,1.32,3.81,.94,5.16,3.26,1.1,1.89-.71,3.29,.2,6.18,.86,2.72,3.01,3.19,2.72,4.39-.47,1.9-6.54,3.11-8.43,.89-1.47-1.72,.68-4.2-1.19-6.7-.87-1.17-2.25-1.84-2.42-3.34-.04-.31-.07-1.04-.58-1.43-.24-.18-.55-.29-.93-.29-.57,0-1.02,.16-1.37,.41-.68,.5-.71,1.33-.9,2.07-.54,2.15-1.91,1.87-2.68,3.95-.72,1.95,.27,2.76-.68,4.38-.16,.27-.83,1.41-2.09,1.76-1.73,.48-3.75-.76-4.52-2.28-.9-1.77,0-3.77,1-6.04,1.86-4.17,3.63-4.36,4.24-7.52,.2-1.02,.13-2.36-.01-5.03-.15-2.97-.4-3.14-.42-5.04Z"/><path class="d" d="M48.78,13c0,1.85-.45,3.03-1.09,3.84-1.72,2.16-3.82,2.05-4.08,3.39-.35,1.84,3.86,2.68,4.55,6.02,.49,2.39-1.39,3.31-.65,5.47,.86,2.53,3.98,2.88,3.83,4.31-.11,1.01-1.77,1.8-3.11,1.91-2.82,.24-6-2.36-6.7-5.26-.36-1.51,.2-2.08-.14-6.23-.09-1.03-.21-2.05-.99-2.79-.62-.58-1.46-.83-2.37-.83-.98,0-1.72,.32-2.23,.81-.57,.54-.66,1.18-.88,2.13-.76,3.36-1.27,3.06-1.28,4.42,0,2.37,1.53,3.07,.96,4.41-.43,1.03-1.76,1.58-2.8,1.59-2.02,.01-4.28-1.91-4.28-3.65,0-2.39,1.89-5.59,1.89-10,0-5.67-2.1-9.58-2.1-12.39,0-2.35,1.43-4.66,9.79-4.66,5.08,0,11.68,1.85,11.68,7.52Zm-8.25-1.68c-1.07-.9-2.22-1.03-2.89-1.1-1.26-.13-3.73-.01-4.27,1.24-.33,.77,.43,1.15,.55,2.89,.13,1.8-.6,2.57-.14,3.03,.53,.53,1.54-.41,3.74-.56,2.2-.15,2.99,.66,3.83,.01,1.07-.82,.73-2.83,.69-3.03-.26-1.4-1.2-2.22-1.51-2.48Z"/><path class="d" d="M91.03,13.29c0,.98-.07,4.11-2.17,6.87-.86,1.14-1.7,2.24-3.13,2.57-1.52,.35-2.48-.46-4.03,.22-.6,.26-1.64,.91-1.59,1.6,.07,.93,2.14,1.83,3.94,1.63,1.59-.18,2.83-1.2,3.79-2.01,1.52-1.26,1.82-2.13,2.52-2.06,.88,.09,1.77,1.59,1.74,2.89-.08,3.18-5.68,6.27-10.6,6.56-1.35,.08-6.33,.38-8.87-2.61-1.03-1.21-1.39-2.64-3.1-3.35-.57-.24-1.51-.31-3.41-.47-1.9-.16-2.86-.23-3.31-.04-.89,.37-1.51,1.56-2.71,3.94-1.9,3.75-2.04,4.08-2.55,4.3-1.94,.85-5.77-1.37-6.12-3.93-.3-2.18,2.2-2.52,4.12-6.63,1.74-3.74,.42-5.05,2.6-9.49,1.01-2.06,1.38-1.96,2.24-4.03,1.31-3.16,.98-4.67,2.41-5.86,1.43-1.18,3.38-1.02,4.07-.96,3.1,.26,3.52,2.88,6.64,3.28,.42,.05,1.6-.16,3.94-.59,4.14-.76,4.82-1.15,6.55-1.03,1.17,.08,2.73,.18,4.14,1.19,2.97,2.1,2.89,6.47,2.89,8.04Zm-21.82-.15c-.19-.3-1.95-3.11-3.96-2.76-1.62,.28-2.35,2.43-2.93,4.14-.66,1.94-1.38,4.07-.17,5.51,1.18,1.41,3.57,1.45,5.21,.68,2.07-.97,2.62-3.08,2.69-3.36,.5-2.05-.49-3.66-.83-4.22Zm16.9,5.11c1.13-1.97-.25-4.46-.39-4.71-.24-.41-.62-1.06-1.38-1.55-1.64-1.06-4.2-.85-5,.34-.52,.79,.15,1.35,.17,3.96,.02,2.12-.41,2.54,0,3.1,.99,1.34,5.22,1.24,6.6-1.15Z"/><path class="d" d="M111.99,14.92c-.48,.76-1.65,1.23-2.49,.95-.72-.24-.64-.84-1.56-1.54-.28-.21-1.51-1.08-2.88-.76-.85,.2-2.03,.91-2.1,1.81-.13,1.64,3.59,1.93,6.82,5.53,.89,1,3.19,3.56,2.8,6.44-.16,1.2-.62,1.17-1.51,3.77-1,2.89-.61,3.41-1.44,4.52-1.4,1.87-3.89,2.19-4.57,2.27-1.46,.19-2.93-.28-5.79-1.22-3.35-1.1-5.05-1.68-5.89-2.81-1.25-1.69-1.71-4.49-.46-5.65,.49-.46,1.24-.66,1.89-.58,1.38,.16,1.48,1.47,3.15,2.27,.9,.43,.96,.09,3.27,.51,2.51,.45,2.89,.92,3.49,.59,1.18-.66,1.3-3.41,.45-5.43-.81-1.95-2.48-3.12-4.24-4.36-2.2-1.55-2.78-1.31-3.38-2.36-.89-1.55-.42-3.45,.13-5.68,.37-1.51,.57-2.31,1.29-3.1,1.11-1.22,2.6-1.47,4-1.68,1.86-.28,4.43-.67,6.59,.9,1.91,1.39,3.33,4.18,2.43,5.62Z"/><path class="d" d="M132.51,10.47c-.48,.76-1.65,1.23-2.49,.95-.72-.24-.64-.84-1.56-1.54-.28-.21-1.51-1.08-2.88-.76-.85,.2-2.03,.91-2.1,1.81-.13,1.64,3.59,1.93,6.82,5.53,.89,1,3.19,3.56,2.8,6.44-.16,1.2-.62,1.17-1.51,3.77-1,2.89-.61,3.41-1.44,4.52-1.4,1.87-3.89,2.19-4.57,2.27-1.46,.19-2.93-.28-5.79-1.22-3.35-1.1-5.05-1.68-5.89-2.81-1.25-1.69-1.71-4.49-.46-5.65,.49-.46,1.24-.66,1.89-.58,1.38,.16,1.48,1.47,3.15,2.27,.9,.43,.96,.09,3.27,.51,2.51,.45,2.89,.92,3.49,.59,1.18-.66,1.3-3.41,.45-5.43-.81-1.95-2.48-3.12-4.24-4.36-2.2-1.55-2.78-1.31-3.38-2.36-.89-1.55-.42-3.45,.13-5.68,.37-1.51,.57-2.31,1.29-3.1,1.11-1.22,2.6-1.47,4-1.68,1.86-.28,4.43-.67,6.59,.9,1.91,1.39,3.33,4.18,2.43,5.62Z"/></g></g></g></svg>